<svg width="26" height="22" viewBox="0 0 26 22" fill="none" xmlns="http://www.w3.org/2000/svg">
<path d="M26 2.1888C25.8477 2.91457 25.6902 3.64034 25.543 4.36611C24.6695 8.66997 23.7961 12.9738 22.9277 17.2777C22.7348 18.2319 22.5418 19.1809 22.3488 20.1351C22.3336 20.2011 22.3184 20.2671 22.3031 20.333C21.902 21.9267 20.409 22.4951 19.0836 21.5207C18.1848 20.8609 17.3367 20.13 16.4633 19.4347C15.925 19.0033 15.3816 18.5668 14.8281 18.1202C14.366 18.5415 13.9141 18.9576 13.4621 19.3738C12.9898 19.8103 12.5176 20.2468 12.0453 20.6782C11.4867 21.1857 10.852 21.4953 10.0801 21.3481C9.25234 21.1908 8.75469 20.6376 8.48047 19.8763C8.06406 18.7343 7.67305 17.5822 7.27187 16.4352C6.8707 15.2882 6.46445 14.1412 6.06836 12.9941C6.0125 12.8317 5.93125 12.7505 5.76875 12.7048C4.34687 12.3039 2.925 11.8979 1.50313 11.4918C1.42188 11.4665 1.34062 11.4462 1.25937 11.4157C0.675391 11.2025 0.203125 10.8777 0 10.2585C0 10.1063 0 9.95402 0 9.80176C0.142187 9.57338 0.233594 9.29423 0.431641 9.1369C0.736328 8.89328 1.08672 8.68519 1.45234 8.54816C8.01328 6.03081 14.5742 3.52868 21.1402 1.02655C21.9781 0.706806 22.8059 0.361685 23.659 0.0977684C24.7965 -0.252428 25.7918 0.371835 25.9645 1.43258C25.9695 1.46303 25.9898 1.49348 26 1.52393C26 1.74724 26 1.97056 26 2.1888ZM12.5125 14.2934C12.6648 14.4203 12.802 14.532 12.9391 14.6436C15.2242 16.486 17.5094 18.3232 19.7996 20.1656C20.4242 20.668 20.7137 20.5564 20.8711 19.7697C21.0285 18.983 21.1859 18.1963 21.3434 17.4097C22.3742 12.309 23.4102 7.20828 24.441 2.11267C24.4613 2.00609 24.4715 1.89443 24.4715 1.78785C24.4766 1.59499 24.3699 1.49855 24.182 1.54423C23.984 1.58991 23.791 1.65589 23.6031 1.72694C16.443 4.45746 9.28789 7.1829 2.12773 9.91342C2.0668 9.93372 2.01602 9.96925 1.91445 10.0149C1.9957 10.0403 2.03125 10.0555 2.0668 10.0657C3.49375 10.4768 4.92578 10.8879 6.35781 11.2888C6.4543 11.3142 6.59141 11.2838 6.68281 11.233C10.1918 9.44649 13.7008 7.65491 17.2047 5.86332C17.9664 5.4776 18.723 5.0868 19.4848 4.70108C19.8656 4.50821 20.2617 4.58942 20.4852 4.89394C20.7137 5.20353 20.6832 5.58926 20.3988 5.91408C20.3277 5.99528 20.2465 6.07649 20.1754 6.15262C18.1238 8.335 16.0672 10.5123 14.0156 12.6947C13.518 13.2225 13.0203 13.7504 12.5125 14.2934ZM9.58242 18.445C9.61797 18.3232 9.63828 18.2725 9.64844 18.2268C9.96328 16.958 10.2832 15.6891 10.5879 14.4152C10.659 14.1158 10.8012 13.8772 11.0094 13.6539C12.7055 11.8623 14.3965 10.0606 16.0875 8.26394C16.1332 8.21827 16.1688 8.16244 16.2094 8.11169C16.1992 8.10661 16.1941 8.09646 16.184 8.09138C13.2945 9.56322 10.4102 11.0401 7.51055 12.5221C8.19609 14.4863 8.88164 16.4352 9.58242 18.445ZM11.8422 15.7145C11.5121 17.0442 11.1973 18.3334 10.8773 19.6174C10.8926 19.6276 10.9078 19.6326 10.918 19.6428C11.8168 18.8155 12.7156 17.9882 13.6246 17.1508C13.0254 16.6687 12.4516 16.2017 11.8422 15.7145Z" fill="#E3E3E2"/>
</svg>
